<svg version="1.1" id="Layer_1" xmlns="http://www.w3.org/2000/svg" xmlns:xlink="http://www.w3.org/1999/xlink" x="0px" y="0px"
	 width="100%" viewBox="0 0 2048 2048" enable-background="new 0 0 2048 2048" xml:space="preserve">
<path fill="#000000" opacity="1.000000" stroke="none" 
	d="
M1077.000000,2049.000000 
	C718.000000,2049.000000 359.500000,2049.000000 1.000000,2049.000000 
	C1.000000,1366.333374 1.000000,683.666687 1.000000,1.000000 
	C683.666687,1.000000 1366.333374,1.000000 2049.000000,1.000000 
	C2049.000000,683.666687 2049.000000,1366.333374 2049.000000,2049.000000 
	C1725.166626,2049.000000 1401.333374,2049.000000 1077.000000,2049.000000 
M661.975952,1914.482666 
	C679.258240,1921.003296 696.385010,1927.978760 713.855652,1933.948242 
	C748.353271,1945.735474 783.306824,1956.029419 819.128662,1963.058105 
	C841.906433,1967.527466 864.674438,1972.128296 887.584351,1975.816040 
	C904.757568,1978.580078 922.122742,1980.272705 939.453064,1981.903442 
	C954.565308,1983.325684 969.742859,1984.725586 984.901306,1984.839111 
	C1013.503601,1985.053101 1042.119629,1984.605835 1070.716553,1983.894043 
	C1085.715698,1983.520752 1100.703247,1982.203369 1115.664795,1980.942627 
	C1127.746216,1979.924561 1139.837280,1978.731079 1151.823486,1976.941895 
	C1172.029907,1973.925659 1192.198975,1970.611206 1212.307617,1966.998291 
	C1248.120117,1960.563721 1283.209961,1951.174561 1317.835327,1940.073730 
	C1331.471802,1935.701782 1345.115601,1931.225098 1358.396851,1925.900146 
	C1383.815186,1915.708984 1409.174683,1905.320557 1434.172852,1894.150879 
	C1450.348145,1886.923462 1466.027588,1878.509033 1481.585815,1869.999023 
	C1498.540405,1860.725098 1515.531250,1851.393311 1531.725830,1840.884033 
	C1555.223022,1825.635742 1578.314819,1809.716064 1601.013550,1793.300171 
	C1616.427734,1782.152466 1631.100464,1769.935913 1645.684448,1757.696533 
	C1660.081177,1745.614258 1674.597046,1733.553345 1687.902100,1720.318237 
	C1709.298096,1699.035156 1729.776733,1676.827637 1750.557739,1654.930054 
	C1754.832642,1650.425659 1758.898438,1645.698120 1762.771484,1640.842773 
	C1770.001465,1631.779541 1777.169189,1622.658691 1784.091919,1613.360107 
	C1796.090576,1597.243774 1808.302856,1581.260986 1819.642456,1564.686523 
	C1830.689941,1548.539307 1840.993286,1531.865112 1851.176025,1515.149780 
	C1859.075684,1502.181885 1866.687256,1489.003296 1873.701172,1475.540039 
	C1882.428101,1458.789062 1890.755615,1441.807739 1898.615601,1424.633057 
	C1906.829712,1406.684814 1914.848633,1388.605347 1921.912964,1370.184448 
	C1929.190674,1351.207275 1935.425293,1331.817749 1941.713013,1312.477539 
	C1945.845337,1299.766846 1949.670898,1286.925659 1952.907104,1273.961426 
	C1958.166382,1252.892700 1963.298096,1231.770020 1967.604614,1210.492188 
	C1971.364624,1191.915283 1974.213867,1173.135986 1976.893311,1154.364502 
	C1978.770508,1141.212891 1979.820679,1127.936035 1980.993896,1114.693237 
	C1982.460938,1098.133789 1984.706177,1081.556885 1984.786011,1064.978760 
	C1984.956421,1029.618042 1986.430420,994.207825 1983.023682,958.893799 
	C1981.903320,947.281677 1981.260010,935.619690 1979.957886,924.030029 
	C1978.201782,908.401367 1976.481812,892.743958 1973.908325,877.237915 
	C1970.349487,855.793213 1966.764282,834.301636 1961.815552,813.151794 
	C1955.540161,786.333618 1948.274414,759.726379 1940.668457,733.248657 
	C1936.626709,719.178467 1931.403564,705.397217 1925.938721,691.796997 
	C1915.725342,666.379150 1905.618408,640.881531 1894.238159,615.978760 
	C1879.243164,583.166260 1862.000000,551.456665 1842.876221,520.841187 
	C1832.138306,503.650604 1821.473267,486.329926 1809.446899,470.049133 
	C1792.900269,447.649017 1775.393188,425.934021 1757.727417,404.393066 
	C1745.692871,389.718689 1733.393921,375.128357 1719.948486,361.773712 
	C1697.585938,339.562256 1674.423828,318.137451 1651.167114,296.852600 
	C1639.513550,286.187256 1627.368774,275.933685 1614.635376,266.599945 
	C1590.447876,248.870071 1566.164307,231.183228 1541.002563,214.896698 
	C1518.760864,200.500198 1495.621216,187.374649 1472.227783,174.908218 
	C1451.264282,163.736740 1429.613525,153.780411 1407.895020,144.122559 
	C1389.243530,135.828522 1370.285522,128.102646 1351.064453,121.242683 
	C1330.152100,113.779144 1308.866333,107.314598 1287.579956,100.962105 
	C1271.544434,96.176559 1255.347656,91.835892 1239.043457,88.073944 
	C1224.723022,84.769753 1210.172607,82.436821 1195.688599,79.874046 
	C1181.989868,77.450211 1168.289429,74.958710 1154.508301,73.100662 
	C1141.320557,71.322617 1128.040161,70.186440 1114.778687,69.012802 
	C1098.194092,67.545052 1081.591431,65.284416 1064.989258,65.217873 
	C1030.104248,65.078049 995.169189,63.519142 960.329285,66.967422 
	C945.254456,68.459450 930.114075,69.338669 915.068909,71.066559 
	C897.814331,73.048218 880.554321,75.204895 863.439697,78.124069 
	C844.277100,81.392548 825.094421,84.876991 806.246826,89.576256 
	C780.583496,95.974884 754.927734,102.697739 729.823975,110.967186 
	C702.711487,119.898346 675.835327,129.829132 649.599060,141.059723 
	C622.617432,152.609375 596.292236,165.781982 570.117126,179.103653 
	C538.718140,195.084015 508.639496,213.432755 480.088104,234.086838 
	C456.007111,251.507034 432.124329,269.251190 408.893463,287.779388 
	C392.971741,300.478027 377.977142,314.407990 363.200531,328.452942 
	C350.100342,340.904419 337.614166,354.034546 325.329254,367.302429 
	C311.872437,381.835968 298.577362,396.554657 285.907318,411.771790 
	C271.874176,428.626038 258.175079,445.802368 245.180954,463.464111 
	C234.541992,477.924591 224.717041,493.036560 215.311371,508.339233 
	C201.930069,530.110168 188.295715,551.818176 176.540924,574.472229 
	C162.448166,601.632019 149.504044,629.449829 137.363129,657.544739 
	C122.005859,693.082458 109.531311,729.741882 99.500366,767.158997 
	C94.264603,786.689331 89.278412,806.318665 85.159119,826.107178 
	C81.099846,845.607422 78.003052,865.323242 74.994225,885.022400 
	C72.299622,902.664368 69.918564,920.373596 68.109222,938.125488 
	C66.553261,953.391541 65.153885,968.760742 65.173180,984.082520 
	C65.217743,1019.468384 63.485783,1054.899536 66.970261,1090.235474 
	C68.744308,1108.226074 70.091293,1126.261108 72.058823,1144.229370 
	C73.699455,1159.212280 75.367226,1174.236816 78.095634,1189.045166 
	C81.874176,1209.553101 86.151169,1230.000732 91.146912,1250.244141 
	C96.683624,1272.679688 102.918793,1294.961060 109.527603,1317.107178 
	C113.718018,1331.149536 118.650551,1345.022095 124.124825,1358.618652 
	C134.367996,1384.059814 144.510773,1409.587891 156.078156,1434.436035 
	C166.641678,1457.127930 178.710114,1479.145386 190.731293,1501.123291 
	C199.100250,1516.423828 208.126877,1531.401611 217.566177,1546.068970 
	C226.582901,1560.079590 236.084808,1573.826782 246.140793,1587.108765 
	C262.042206,1608.111816 278.305969,1628.856812 294.956818,1649.270142 
	C305.386536,1662.056641 316.378052,1674.452393 327.885010,1686.276489 
	C343.980743,1702.815796 360.418640,1719.065063 377.408630,1734.678467 
	C392.475525,1748.524048 408.324982,1761.540527 424.152466,1774.528931 
	C435.758698,1784.053223 447.571960,1793.391113 459.858337,1802.005737 
	C478.604431,1815.149780 497.527649,1828.096924 516.954346,1840.198730 
	C536.125061,1852.140991 555.773682,1863.376953 575.662354,1874.087769 
	C592.867310,1883.353027 610.605652,1891.653931 628.295837,1899.982544 
	C639.114014,1905.075684 650.286560,1909.416260 661.975952,1914.482666 
z"/>
<path fill="#8E24AA" opacity="1.000000" stroke="none" 
	d="
M661.637939,1914.288818 
	C650.286560,1909.416260 639.114014,1905.075684 628.295837,1899.982544 
	C610.605652,1891.653931 592.867310,1883.353027 575.662354,1874.087769 
	C555.773682,1863.376953 536.125061,1852.140991 516.954346,1840.198730 
	C497.527649,1828.096924 478.604431,1815.149780 459.858337,1802.005737 
	C447.571960,1793.391113 435.758698,1784.053223 424.152466,1774.528931 
	C408.324982,1761.540527 392.475525,1748.524048 377.408630,1734.678467 
	C360.418640,1719.065063 343.980743,1702.815796 327.885010,1686.276489 
	C316.378052,1674.452393 305.386536,1662.056641 294.956818,1649.270142 
	C278.305969,1628.856812 262.042206,1608.111816 246.140793,1587.108765 
	C236.084808,1573.826782 226.582901,1560.079590 217.566177,1546.068970 
	C208.126877,1531.401611 199.100250,1516.423828 190.731293,1501.123291 
	C178.710114,1479.145386 166.641678,1457.127930 156.078156,1434.436035 
	C144.510773,1409.587891 134.367996,1384.059814 124.124825,1358.618652 
	C118.650551,1345.022095 113.718018,1331.149536 109.527603,1317.107178 
	C102.918793,1294.961060 96.683624,1272.679688 91.146912,1250.244141 
	C86.151169,1230.000732 81.874176,1209.553101 78.095634,1189.045166 
	C75.367226,1174.236816 73.699455,1159.212280 72.058823,1144.229370 
	C70.091293,1126.261108 68.744308,1108.226074 66.970261,1090.235474 
	C63.485783,1054.899536 65.217743,1019.468384 65.173180,984.082520 
	C65.153885,968.760742 66.553261,953.391541 68.109222,938.125488 
	C69.918564,920.373596 72.299622,902.664368 74.994225,885.022400 
	C78.003052,865.323242 81.099846,845.607422 85.159119,826.107178 
	C89.278412,806.318665 94.264603,786.689331 99.500366,767.158997 
	C109.531311,729.741882 122.005859,693.082458 137.363129,657.544739 
	C149.504044,629.449829 162.448166,601.632019 176.540924,574.472229 
	C188.295715,551.818176 201.930069,530.110168 215.311371,508.339233 
	C224.717041,493.036560 234.541992,477.924591 245.180954,463.464111 
	C258.175079,445.802368 271.874176,428.626038 285.907318,411.771790 
	C298.577362,396.554657 311.872437,381.835968 325.329254,367.302429 
	C337.614166,354.034546 350.100342,340.904419 363.200531,328.452942 
	C377.977142,314.407990 392.971741,300.478027 408.893463,287.779388 
	C432.124329,269.251190 456.007111,251.507034 480.088104,234.086838 
	C508.639496,213.432755 538.718140,195.084015 570.117126,179.103653 
	C596.292236,165.781982 622.617432,152.609375 649.599060,141.059723 
	C675.835327,129.829132 702.711487,119.898346 729.823975,110.967186 
	C754.927734,102.697739 780.583496,95.974884 806.246826,89.576256 
	C825.094421,84.876991 844.277100,81.392548 863.439697,78.124069 
	C880.554321,75.204895 897.814331,73.048218 915.068909,71.066559 
	C930.114075,69.338669 945.254456,68.459450 960.329285,66.967422 
	C995.169189,63.519142 1030.104248,65.078049 1064.989258,65.217873 
	C1081.591431,65.284416 1098.194092,67.545052 1114.778687,69.012802 
	C1128.040161,70.186440 1141.320557,71.322617 1154.508301,73.100662 
	C1168.289429,74.958710 1181.989868,77.450211 1195.688599,79.874046 
	C1210.172607,82.436821 1224.723022,84.769753 1239.043457,88.073944 
	C1255.347656,91.835892 1271.544434,96.176559 1287.579956,100.962105 
	C1308.866333,107.314598 1330.152100,113.779144 1351.064453,121.242683 
	C1370.285522,128.102646 1389.243530,135.828522 1407.895020,144.122559 
	C1429.613525,153.780411 1451.264282,163.736740 1472.227783,174.908218 
	C1495.621216,187.374649 1518.760864,200.500198 1541.002563,214.896698 
	C1566.164307,231.183228 1590.447876,248.870071 1614.635376,266.599945 
	C1627.368774,275.933685 1639.513550,286.187256 1651.167114,296.852600 
	C1674.423828,318.137451 1697.585938,339.562256 1719.948486,361.773712 
	C1733.393921,375.128357 1745.692871,389.718689 1757.727417,404.393066 
	C1775.393188,425.934021 1792.900269,447.649017 1809.446899,470.049133 
	C1821.473267,486.329926 1832.138306,503.650604 1842.876221,520.841187 
	C1862.000000,551.456665 1879.243164,583.166260 1894.238159,615.978760 
	C1905.618408,640.881531 1915.725342,666.379150 1925.938721,691.796997 
	C1931.403564,705.397217 1936.626709,719.178467 1940.668457,733.248657 
	C1948.274414,759.726379 1955.540161,786.333618 1961.815552,813.151794 
	C1966.764282,834.301636 1970.349487,855.793213 1973.908325,877.237915 
	C1976.481812,892.743958 1978.201782,908.401367 1979.957886,924.030029 
	C1981.260010,935.619690 1981.903320,947.281677 1983.023682,958.893799 
	C1986.430420,994.207825 1984.956421,1029.618042 1984.786011,1064.978760 
	C1984.706177,1081.556885 1982.460938,1098.133789 1980.993896,1114.693237 
	C1979.820679,1127.936035 1978.770508,1141.212891 1976.893311,1154.364502 
	C1974.213867,1173.135986 1971.364624,1191.915283 1967.604614,1210.492188 
	C1963.298096,1231.770020 1958.166382,1252.892700 1952.907104,1273.961426 
	C1949.670898,1286.925659 1945.845337,1299.766846 1941.713013,1312.477539 
	C1935.425293,1331.817749 1929.190674,1351.207275 1921.912964,1370.184448 
	C1914.848633,1388.605347 1906.829712,1406.684814 1898.615601,1424.633057 
	C1890.755615,1441.807739 1882.428101,1458.789062 1873.701172,1475.540039 
	C1866.687256,1489.003296 1859.075684,1502.181885 1851.176025,1515.149780 
	C1840.993286,1531.865112 1830.689941,1548.539307 1819.642456,1564.686523 
	C1808.302856,1581.260986 1796.090576,1597.243774 1784.091919,1613.360107 
	C1777.169189,1622.658691 1770.001465,1631.779541 1762.771484,1640.842773 
	C1758.898438,1645.698120 1754.832642,1650.425659 1750.557739,1654.930054 
	C1729.776733,1676.827637 1709.298096,1699.035156 1687.902100,1720.318237 
	C1674.597046,1733.553345 1660.081177,1745.614258 1645.684448,1757.696533 
	C1631.100464,1769.935913 1616.427734,1782.152466 1601.013550,1793.300171 
	C1578.314819,1809.716064 1555.223022,1825.635742 1531.725830,1840.884033 
	C1515.531250,1851.393311 1498.540405,1860.725098 1481.585815,1869.999023 
	C1466.027588,1878.509033 1450.348145,1886.923462 1434.172852,1894.150879 
	C1409.174683,1905.320557 1383.815186,1915.708984 1358.396851,1925.900146 
	C1345.115601,1931.225098 1331.471802,1935.701782 1317.835327,1940.073730 
	C1283.209961,1951.174561 1248.120117,1960.563721 1212.307617,1966.998291 
	C1192.198975,1970.611206 1172.029907,1973.925659 1151.823486,1976.941895 
	C1139.837280,1978.731079 1127.746216,1979.924561 1115.664795,1980.942627 
	C1100.703247,1982.203369 1085.715698,1983.520752 1070.716553,1983.894043 
	C1042.119629,1984.605835 1013.503601,1985.053101 984.901306,1984.839111 
	C969.742859,1984.725586 954.565308,1983.325684 939.453064,1981.903442 
	C922.122742,1980.272705 904.757568,1978.580078 887.584351,1975.816040 
	C864.674438,1972.128296 841.906433,1967.527466 819.128662,1963.058105 
	C783.306824,1956.029419 748.353271,1945.735474 713.855652,1933.948242 
	C696.385010,1927.978760 679.258240,1921.003296 661.637939,1914.288818 
M1235.885132,1429.623291 
	C1241.704346,1447.987061 1247.616089,1466.322510 1253.262695,1484.739136 
	C1254.360229,1488.319092 1256.245483,1489.071533 1259.678101,1489.066895 
	C1326.177856,1488.976807 1392.677856,1489.001343 1459.177734,1488.990356 
	C1460.580322,1488.990112 1461.983032,1488.847900 1463.892700,1488.744385 
	C1459.800903,1477.204102 1455.885986,1466.111206 1451.935425,1455.031128 
	C1442.328003,1428.085571 1432.634399,1401.170410 1423.103638,1374.197876 
	C1409.648804,1336.119751 1396.358276,1297.983398 1382.903931,1259.905029 
	C1373.372681,1232.929932 1363.625000,1206.031250 1354.083618,1179.059692 
	C1338.540771,1135.123413 1323.138916,1091.137085 1307.576782,1047.207642 
	C1298.140015,1020.569153 1288.394775,994.039673 1279.003784,967.385315 
	C1268.055786,936.312256 1257.448486,905.119263 1246.500366,874.046204 
	C1234.242676,839.255981 1221.781860,804.537292 1209.385010,769.796204 
	C1199.948242,743.350464 1190.432739,716.932739 1181.027100,690.475891 
	C1173.274902,668.669067 1165.587158,646.839050 1157.954956,624.989868 
	C1150.908203,604.815979 1143.921143,584.620789 1137.051758,564.386108 
	C1136.140625,561.701965 1134.810669,560.910461 1132.077515,560.940735 
	C1119.745605,561.077454 1107.411499,561.000061 1095.078125,561.000000 
	C1037.411499,561.000000 979.744873,561.034302 922.078552,560.920593 
	C918.348083,560.913269 916.691650,561.967651 915.552673,565.648315 
	C913.052368,573.727722 909.868225,581.594421 906.998718,589.560791 
	C900.341919,608.041931 893.679443,626.521057 887.067688,645.018372 
	C876.772156,673.821655 866.533813,702.645264 856.239868,731.449036 
	C846.564880,758.520874 836.791748,785.557739 827.165405,812.646912 
	C813.363647,851.486084 799.702637,890.375366 785.887329,929.209778 
	C779.401550,947.441223 772.627747,965.570129 766.105652,983.788818 
	C756.023254,1011.952942 746.077637,1040.165894 736.013611,1068.336670 
	C724.406555,1100.826904 712.699341,1133.281128 701.098694,1165.773560 
	C687.702698,1203.294556 674.386780,1240.843994 661.013977,1278.373291 
	C652.383911,1302.592529 643.699524,1326.792358 635.066101,1351.010376 
	C626.494141,1375.055908 617.977173,1399.121094 609.394226,1423.162720 
	C604.690491,1436.338257 599.838745,1449.461182 595.169983,1462.648926 
	C592.121338,1471.260254 589.281189,1479.945435 586.274780,1488.812500 
	C653.621277,1488.812500 720.580505,1488.812500 787.648254,1488.812500 
	C808.664062,1425.200439 829.634644,1361.725220 850.645996,1298.126587 
	C964.716187,1298.126587 1079.022095,1298.126587 1193.667969,1298.126587 
	C1196.322021,1306.503174 1198.934082,1314.859863 1201.616699,1323.193970 
	C1210.360229,1350.357910 1219.148193,1377.507446 1227.877930,1404.675903 
	C1230.468628,1412.738403 1232.923950,1420.844482 1235.885132,1429.623291 
z"/>
<path fill="#000000" opacity="1.000000" stroke="none" 
	d="
M1235.663208,1429.276978 
	C1232.923950,1420.844482 1230.468628,1412.738403 1227.877930,1404.675903 
	C1219.148193,1377.507446 1210.360229,1350.357910 1201.616699,1323.193970 
	C1198.934082,1314.859863 1196.322021,1306.503174 1193.667969,1298.126587 
	C1079.022095,1298.126587 964.716187,1298.126587 850.645996,1298.126587 
	C829.634644,1361.725220 808.664062,1425.200439 787.648254,1488.812500 
	C720.580505,1488.812500 653.621277,1488.812500 586.274780,1488.812500 
	C589.281189,1479.945435 592.121338,1471.260254 595.169983,1462.648926 
	C599.838745,1449.461182 604.690491,1436.338257 609.394226,1423.162720 
	C617.977173,1399.121094 626.494141,1375.055908 635.066101,1351.010376 
	C643.699524,1326.792358 652.383911,1302.592529 661.013977,1278.373291 
	C674.386780,1240.843994 687.702698,1203.294556 701.098694,1165.773560 
	C712.699341,1133.281128 724.406555,1100.826904 736.013611,1068.336670 
	C746.077637,1040.165894 756.023254,1011.952942 766.105652,983.788818 
	C772.627747,965.570129 779.401550,947.441223 785.887329,929.209778 
	C799.702637,890.375366 813.363647,851.486084 827.165405,812.646912 
	C836.791748,785.557739 846.564880,758.520874 856.239868,731.449036 
	C866.533813,702.645264 876.772156,673.821655 887.067688,645.018372 
	C893.679443,626.521057 900.341919,608.041931 906.998718,589.560791 
	C909.868225,581.594421 913.052368,573.727722 915.552673,565.648315 
	C916.691650,561.967651 918.348083,560.913269 922.078552,560.920593 
	C979.744873,561.034302 1037.411499,561.000000 1095.078125,561.000000 
	C1107.411499,561.000061 1119.745605,561.077454 1132.077515,560.940735 
	C1134.810669,560.910461 1136.140625,561.701965 1137.051758,564.386108 
	C1143.921143,584.620789 1150.908203,604.815979 1157.954956,624.989868 
	C1165.587158,646.839050 1173.274902,668.669067 1181.027100,690.475891 
	C1190.432739,716.932739 1199.948242,743.350464 1209.385010,769.796204 
	C1221.781860,804.537292 1234.242676,839.255981 1246.500366,874.046204 
	C1257.448486,905.119263 1268.055786,936.312256 1279.003784,967.385315 
	C1288.394775,994.039673 1298.140015,1020.569153 1307.576782,1047.207642 
	C1323.138916,1091.137085 1338.540771,1135.123413 1354.083618,1179.059692 
	C1363.625000,1206.031250 1373.372681,1232.929932 1382.903931,1259.905029 
	C1396.358276,1297.983398 1409.648804,1336.119751 1423.103638,1374.197876 
	C1432.634399,1401.170410 1442.328003,1428.085571 1451.935425,1455.031128 
	C1455.885986,1466.111206 1459.800903,1477.204102 1463.892700,1488.744385 
	C1461.983032,1488.847900 1460.580322,1488.990112 1459.177734,1488.990356 
	C1392.677856,1489.001343 1326.177856,1488.976807 1259.678101,1489.066895 
	C1256.245483,1489.071533 1254.360229,1488.319092 1253.262695,1484.739136 
	C1247.616089,1466.322510 1241.704346,1447.987061 1235.663208,1429.276978 
M1071.999146,919.491089 
	C1070.850342,915.594238 1069.767212,911.676575 1068.541504,907.804077 
	C1062.985229,890.249878 1057.461426,872.684875 1051.789185,855.167969 
	C1044.112549,831.461426 1036.306885,807.796753 1028.567383,784.110535 
	C1027.381958,780.482361 1026.253418,776.835632 1025.098511,773.197449 
	C1024.645874,773.150696 1024.193115,773.103882 1023.740479,773.057129 
	C983.565613,894.905396 943.390747,1016.753662 903.212769,1138.611328 
	C983.048645,1138.611328 1062.418091,1138.611328 1142.019409,1138.611328 
	C1140.843018,1134.117920 1139.958618,1129.983765 1138.679565,1125.975586 
	C1130.052979,1098.939941 1121.406372,1071.910522 1112.637207,1044.920898 
	C1106.894897,1027.247925 1100.838013,1009.677002 1095.097900,992.003235 
	C1087.343628,968.128296 1079.758057,944.198608 1071.999146,919.491089 
z"/>
<path fill="#8E24AA" opacity="1.000000" stroke="none" 
	d="
M1072.049561,919.891724 
	C1079.758057,944.198608 1087.343628,968.128296 1095.097900,992.003235 
	C1100.838013,1009.677002 1106.894897,1027.247925 1112.637207,1044.920898 
	C1121.406372,1071.910522 1130.052979,1098.939941 1138.679565,1125.975586 
	C1139.958618,1129.983765 1140.843018,1134.117920 1142.019409,1138.611328 
	C1062.418091,1138.611328 983.048645,1138.611328 903.212769,1138.611328 
	C943.390747,1016.753662 983.565613,894.905396 1023.740479,773.057129 
	C1024.193115,773.103882 1024.645874,773.150696 1025.098511,773.197449 
	C1026.253418,776.835632 1027.381958,780.482361 1028.567383,784.110535 
	C1036.306885,807.796753 1044.112549,831.461426 1051.789185,855.167969 
	C1057.461426,872.684875 1062.985229,890.249878 1068.541504,907.804077 
	C1069.767212,911.676575 1070.850342,915.594238 1072.049561,919.891724 
z"/>
</svg>